<svg version="1.1" xmlns="http://www.w3.org/2000/svg" xmlns:xlink="http://www.w3.org/1999/xlink" width="1932" height="1525"><defs/><g><g transform="translate(-166,-22) scale(1,1)"><rect fill="#C0C0C0" stroke="none" x="887" y="215" width="483.20000000000005" height="15" opacity="0.2"/></g><g transform="translate(-166,-22) scale(1,1)"><rect fill="#C0C0C0" stroke="none" x="887" y="229" width="1208" height="1226" opacity="0.2"/></g><g transform="translate(-166,-22) scale(1,1)"><rect fill="#ffc082" stroke="none" x="880" y="223" width="1208" height="1225"/></g><g transform="translate(-166,-22) scale(1,1)"><path fill="none" stroke="#000000" d="M 880 223 L 2088 223 L 2088 1448 L 880 1448 L 880 223 Z Z" stroke-miterlimit="10"/></g><g transform="translate(-166,-22) scale(1,1)"><rect fill="#ffc082" stroke="none" x="880" y="208" width="483.20000000000005" height="15"/></g><g transform="translate(-166,-22) scale(1,1)"><path fill="none" stroke="#000000" d="M 880 208 L 1363.2 208 L 1363.2 223 L 880 223 L 880 208 Z Z" stroke-miterlimit="10"/></g><g transform="translate(-166,-22) scale(1,1)"><rect fill="#ffc082" stroke="none" x="880" y="222" width="1208" height="1226"/></g><g transform="translate(-166,-22) scale(1,1)"><path fill="none" stroke="#000000" d="M 880 222 L 2088 222 L 2088 1448 L 880 1448 L 880 222 Z Z" stroke-miterlimit="10"/></g><g transform="translate(-166,-22) scale(1,1)"><g><path fill="none" stroke="none"/><text fill="#000000" stroke="none" font-family="Arial" font-size="13px" font-style="normal" font-weight="bold" text-decoration="none" x="1421.135986328125" y="242.5">smarthomeapp.model</text></g></g><g transform="translate(-166,-22) scale(1,1)"><rect fill="#C0C0C0" stroke="none" x="943" y="567" width="230.4000000000001" height="15" opacity="0.2"/></g><g transform="translate(-166,-22) scale(1,1)"><rect fill="#C0C0C0" stroke="none" x="943" y="581" width="576" height="394" opacity="0.2"/></g><g transform="translate(-166,-22) scale(1,1)"><rect fill="#d1ffa3" stroke="none" x="936" y="575" width="576" height="393"/></g><g transform="translate(-166,-22) scale(1,1)"><path fill="none" stroke="#000000" d="M 936 575 L 1512 575 L 1512 968 L 936 968 L 936 575 Z Z" stroke-miterlimit="10"/></g><g transform="translate(-166,-22) scale(1,1)"><rect fill="#d1ffa3" stroke="none" x="936" y="560" width="230.4000000000001" height="15"/></g><g transform="translate(-166,-22) scale(1,1)"><path fill="none" stroke="#000000" d="M 936 560 L 1166.4 560 L 1166.4 575 L 936 575 L 936 560 Z Z" stroke-miterlimit="10"/></g><g transform="translate(-166,-22) scale(1,1)"><rect fill="#d1ffa3" stroke="none" x="936" y="574" width="576" height="394"/></g><g transform="translate(-166,-22) scale(1,1)"><path fill="none" stroke="#000000" d="M 936 574 L 1512 574 L 1512 968 L 936 968 L 936 574 Z Z" stroke-miterlimit="10"/></g><g transform="translate(-166,-22) scale(1,1)"><path fill="none" stroke="#000000" d="M 1158.4 563 L 1158.4 567" stroke-miterlimit="10"/></g><g transform="translate(-166,-22) scale(1,1)"><path fill="none" stroke="#000000" d="M 1155.4 571 L 1155.4 567 L 1161.4 567" stroke-miterlimit="10"/></g><g transform="translate(-166,-22) scale(1,1)"><path fill="none" stroke="#000000" d="M 1161.4 571 L 1161.4 567 L 1155.4 567" stroke-miterlimit="10"/></g><g transform="translate(-166,-22) scale(1,1)"><g><path fill="none" stroke="none"/><text fill="#000000" stroke="none" font-family="Arial" font-size="13px" font-style="normal" font-weight="bold" text-decoration="none" x="1175.224609375" y="594.5">itemsdefintion.py</text></g></g><g transform="translate(-166,-22) scale(1,1)"><rect fill="#C0C0C0" stroke="none" x="399" y="215" width="160" height="15" opacity="0.2"/></g><g transform="translate(-166,-22) scale(1,1)"><rect fill="#C0C0C0" stroke="none" x="399" y="229" width="400" height="434" opacity="0.2"/></g><g transform="translate(-166,-22) scale(1,1)"><rect fill="#ffc082" stroke="none" x="392" y="223" width="400" height="433"/></g><g transform="translate(-166,-22) scale(1,1)"><path fill="none" stroke="#000000" d="M 392 223 L 792 223 L 792 656 L 392 656 L 392 223 Z Z" stroke-miterlimit="10"/></g><g transform="translate(-166,-22) scale(1,1)"><rect fill="#ffc082" stroke="none" x="392" y="208" width="160" height="15"/></g><g transform="translate(-166,-22) scale(1,1)"><path fill="none" stroke="#000000" d="M 392 208 L 552 208 L 552 223 L 392 223 L 392 208 Z Z" stroke-miterlimit="10"/></g><g transform="translate(-166,-22) scale(1,1)"><rect fill="#ffc082" stroke="none" x="392" y="222" width="400" height="434"/></g><g transform="translate(-166,-22) scale(1,1)"><path fill="none" stroke="#000000" d="M 392 222 L 792 222 L 792 656 L 392 656 L 392 222 Z Z" stroke-miterlimit="10"/></g><g transform="translate(-166,-22) scale(1,1)"><g><path fill="none" stroke="none"/><text fill="#000000" stroke="none" font-family="Arial" font-size="13px" font-style="normal" font-weight="bold" text-decoration="none" x="520.1064453125" y="242.5">smarthomeapp.controller</text></g></g><g transform="translate(-166,-22) scale(1,1)"><rect fill="#C0C0C0" stroke="none" x="647" y="271" width="51.200000000000045" height="15" opacity="0.2"/></g><g transform="translate(-166,-22) scale(1,1)"><rect fill="#C0C0C0" stroke="none" x="647" y="285" width="128" height="170" opacity="0.2"/></g><g transform="translate(-166,-22) scale(1,1)"><rect fill="#d1ffa3" stroke="none" x="640" y="279" width="128" height="169"/></g><g transform="translate(-166,-22) scale(1,1)"><path fill="none" stroke="#000000" d="M 640 279 L 768 279 L 768 448 L 640 448 L 640 279 Z Z" stroke-miterlimit="10"/></g><g transform="translate(-166,-22) scale(1,1)"><rect fill="#d1ffa3" stroke="none" x="640" y="264" width="51.200000000000045" height="15"/></g><g transform="translate(-166,-22) scale(1,1)"><path fill="none" stroke="#000000" d="M 640 264 L 691.2 264 L 691.2 279 L 640 279 L 640 264 Z Z" stroke-miterlimit="10"/></g><g transform="translate(-166,-22) scale(1,1)"><rect fill="#d1ffa3" stroke="none" x="640" y="278" width="128" height="170"/></g><g transform="translate(-166,-22) scale(1,1)"><path fill="none" stroke="#000000" d="M 640 278 L 768 278 L 768 448 L 640 448 L 640 278 Z Z" stroke-miterlimit="10"/></g><g transform="translate(-166,-22) scale(1,1)"><path fill="none" stroke="#000000" d="M 683.2 267 L 683.2 271" stroke-miterlimit="10"/></g><g transform="translate(-166,-22) scale(1,1)"><path fill="none" stroke="#000000" d="M 680.2 275 L 680.2 271 L 686.2 271" stroke-miterlimit="10"/></g><g transform="translate(-166,-22) scale(1,1)"><path fill="none" stroke="#000000" d="M 686.2 275 L 686.2 271 L 680.2 271" stroke-miterlimit="10"/></g><g transform="translate(-166,-22) scale(1,1)"><g><path fill="none" stroke="none"/><text fill="#000000" stroke="none" font-family="Arial" font-size="13px" font-style="normal" font-weight="bold" text-decoration="none" x="668.595947265625" y="298.5">controller.py</text></g></g><g transform="translate(-166,-22) scale(1,1)"><rect fill="#C0C0C0" stroke="none" x="415" y="255" width="70" height="15" opacity="0.2"/></g><g transform="translate(-166,-22) scale(1,1)"><rect fill="#C0C0C0" stroke="none" x="415" y="269" width="175" height="290" opacity="0.2"/></g><g transform="translate(-166,-22) scale(1,1)"><rect fill="#d1ffa3" stroke="none" x="408" y="263" width="175" height="289"/></g><g transform="translate(-166,-22) scale(1,1)"><path fill="none" stroke="#000000" d="M 408 263 L 583 263 L 583 552 L 408 552 L 408 263 Z Z" stroke-miterlimit="10"/></g><g transform="translate(-166,-22) scale(1,1)"><rect fill="#d1ffa3" stroke="none" x="408" y="248" width="70" height="15"/></g><g transform="translate(-166,-22) scale(1,1)"><path fill="none" stroke="#000000" d="M 408 248 L 478 248 L 478 263 L 408 263 L 408 248 Z Z" stroke-miterlimit="10"/></g><g transform="translate(-166,-22) scale(1,1)"><rect fill="#d1ffa3" stroke="none" x="408" y="262" width="175" height="290"/></g><g transform="translate(-166,-22) scale(1,1)"><path fill="none" stroke="#000000" d="M 408 262 L 583 262 L 583 552 L 408 552 L 408 262 Z Z" stroke-miterlimit="10"/></g><g transform="translate(-166,-22) scale(1,1)"><path fill="none" stroke="#000000" d="M 470 251 L 470 255" stroke-miterlimit="10"/></g><g transform="translate(-166,-22) scale(1,1)"><path fill="none" stroke="#000000" d="M 467 259 L 467 255 L 473 255" stroke-miterlimit="10"/></g><g transform="translate(-166,-22) scale(1,1)"><path fill="none" stroke="#000000" d="M 473 259 L 473 255 L 467 255" stroke-miterlimit="10"/></g><g transform="translate(-166,-22) scale(1,1)"><g><path fill="none" stroke="none"/><text fill="#000000" stroke="none" font-family="Arial" font-size="13px" font-style="normal" font-weight="bold" text-decoration="none" x="439.49462890625" y="282.5">requestmanager.py</text></g></g><g transform="translate(-166,-22) scale(1,1)"><rect fill="#C0C0C0" stroke="none" x="983" y="327" width="96.419921875" height="85" opacity="0.2"/></g><g transform="translate(-166,-22) scale(1,1)"><rect fill="#ffffff" stroke="none" x="976" y="320" width="96.419921875" height="85"/></g><g transform="translate(-166,-22) scale(1,1)"><path fill="none" stroke="#000000" d="M 976 320 L 1072.419921875 320 L 1072.419921875 405 L 976 405 L 976 320 Z Z" stroke-miterlimit="10"/></g><g transform="translate(-166,-22) scale(1,1)"><path fill="none" stroke="#000000" d="M 976 345 L 1072.419921875 345" stroke-miterlimit="10"/></g><g transform="translate(-166,-22) scale(1,1)"><path fill="none" stroke="#000000" d="M 976 368 L 1072.419921875 368" stroke-miterlimit="10"/></g><g transform="translate(-166,-22) scale(1,1)"><g><path fill="none" stroke="none"/><text fill="#000000" stroke="none" font-family="Arial" font-size="13px" font-style="normal" font-weight="bold" text-decoration="none" x="982.66455078125" y="339.5">ItemsManager</text></g></g><g transform="translate(-166,-22) scale(1,1)"><g><path fill="none" stroke="none"/><text fill="#000000" stroke="none" font-family="Arial" font-size="13px" font-style="normal" font-weight="normal" text-decoration="none" x="981" y="362.5">-_items: Map</text></g></g><g transform="translate(-166,-22) scale(1,1)"><g><path fill="none" stroke="none"/><text fill="#000000" stroke="none" font-family="Arial" font-size="13px" font-style="normal" font-weight="normal" text-decoration="none" x="981" y="385.5">+__init__()</text></g></g><g transform="translate(-166,-22) scale(1,1)"><g><path fill="none" stroke="none"/><text fill="#000000" stroke="none" font-family="Arial" font-size="13px" font-style="normal" font-weight="normal" text-decoration="none" x="981" y="400.5">-_load_items()</text></g></g><g transform="translate(-166,-22) scale(1,1)"><rect fill="#C0C0C0" stroke="none" x="975" y="599" width="120.64892578125" height="130" opacity="0.2"/></g><g transform="translate(-166,-22) scale(1,1)"><rect fill="#ffffff" stroke="none" x="968" y="592" width="120.64892578125" height="130"/></g><g transform="translate(-166,-22) scale(1,1)"><path fill="none" stroke="#000000" d="M 968 592 L 1088.64892578125 592 L 1088.64892578125 722 L 968 722 L 968 592 Z Z" stroke-miterlimit="10"/></g><g transform="translate(-166,-22) scale(1,1)"><path fill="none" stroke="#000000" d="M 968 617 L 1088.64892578125 617" stroke-miterlimit="10"/></g><g transform="translate(-166,-22) scale(1,1)"><path fill="none" stroke="#000000" d="M 968 670 L 1088.64892578125 670" stroke-miterlimit="10"/></g><g transform="translate(-166,-22) scale(1,1)"><g><path fill="none" stroke="none"/><text fill="#000000" stroke="none" font-family="Arial" font-size="13px" font-style="italic" font-weight="bold" text-decoration="none" x="990.824462890625" y="611.5">AbstractItem</text></g></g><g transform="translate(-166,-22) scale(1,1)"><g><path fill="none" stroke="none"/><text fill="#000000" stroke="none" font-family="Arial" font-size="13px" font-style="normal" font-weight="normal" text-decoration="none" x="973" y="634.5">+_id</text></g></g><g transform="translate(-166,-22) scale(1,1)"><g><path fill="none" stroke="none"/><text fill="#000000" stroke="none" font-family="Arial" font-size="13px" font-style="normal" font-weight="normal" text-decoration="none" x="973" y="649.5">+_name</text></g></g><g transform="translate(-166,-22) scale(1,1)"><g><path fill="none" stroke="none"/><text fill="#000000" stroke="none" font-family="Arial" font-size="13px" font-style="normal" font-weight="normal" text-decoration="none" x="973" y="664.5">+_status</text></g></g><g transform="translate(-166,-22) scale(1,1)"><g><path fill="none" stroke="none"/><text fill="#000000" stroke="none" font-family="Arial" font-size="13px" font-style="normal" font-weight="normal" text-decoration="none" x="973" y="687.5">+__init__(id, name)</text></g></g><g transform="translate(-166,-22) scale(1,1)"><g><path fill="none" stroke="none"/><text fill="#000000" stroke="none" font-family="Arial" font-size="13px" font-style="normal" font-weight="normal" text-decoration="none" x="973" y="702.5">+__str__()</text></g></g><g transform="translate(-166,-22) scale(1,1)"><g><path fill="none" stroke="none"/><text fill="#000000" stroke="none" font-family="Arial" font-size="13px" font-style="normal" font-weight="normal" text-decoration="none" x="973" y="717.5">+get_status()</text></g></g><g transform="translate(-166,-22) scale(1,1)"><path fill="none" stroke="#000000" d="M 1024 776 L 1024 722" stroke-miterlimit="10"/></g><g transform="translate(-166,-22) scale(1,1)"><path fill="#FFFFFF" stroke="none" d="M 1032.419035512032 742.3253497152483 L 1024 722 L 1015.580964487968 742.3253497152483"/></g><g transform="translate(-166,-22) scale(1,1)"><path fill="none" stroke="#000000" d="M 1032.419035512032 742.3253497152483 L 1024 722 L 1015.580964487968 742.3253497152483 L 1032.419035512032 742.3253497152483" stroke-miterlimit="10"/></g><g transform="translate(-166,-22) scale(1,1)"><path fill="none" stroke="#000000" d="M 1024 405 L 1024 592" stroke-miterlimit="10"/></g><g transform="translate(-166,-22) scale(1,1)"><path fill="none" stroke="#000000" d="M 1019.790482243984 581.8373251423759 L 1024 592 L 1028.2095177560159 581.8373251423759" stroke-miterlimit="10"/></g><g transform="translate(-166,-22) scale(1,1)"><rect fill="#C0C0C0" stroke="none" x="639" y="39" width="60.075976562500045" height="15" opacity="0.2"/></g><g transform="translate(-166,-22) scale(1,1)"><rect fill="#C0C0C0" stroke="none" x="639" y="53" width="150.18994140625" height="34" opacity="0.2"/></g><g transform="translate(-166,-22) scale(1,1)"><rect fill="#ffc082" stroke="none" x="632" y="47" width="150.18994140625" height="33"/></g><g transform="translate(-166,-22) scale(1,1)"><path fill="none" stroke="#000000" d="M 632 47 L 782.18994140625 47 L 782.18994140625 80 L 632 80 L 632 47 Z Z" stroke-miterlimit="10"/></g><g transform="translate(-166,-22) scale(1,1)"><rect fill="#ffc082" stroke="none" x="632" y="32" width="60.075976562500045" height="15"/></g><g transform="translate(-166,-22) scale(1,1)"><path fill="none" stroke="#000000" d="M 632 32 L 692.0759765625 32 L 692.0759765625 47 L 632 47 L 632 32 Z Z" stroke-miterlimit="10"/></g><g transform="translate(-166,-22) scale(1,1)"><rect fill="#ffc082" stroke="none" x="632" y="46" width="150.18994140625" height="34"/></g><g transform="translate(-166,-22) scale(1,1)"><path fill="none" stroke="#000000" d="M 632 46 L 782.18994140625 46 L 782.18994140625 80 L 632 80 L 632 46 Z Z" stroke-miterlimit="10"/></g><g transform="translate(-166,-22) scale(1,1)"><g><path fill="none" stroke="none"/><text fill="#000000" stroke="none" font-family="Arial" font-size="13px" font-style="normal" font-weight="bold" text-decoration="none" x="663.740478515625" y="66.5">smarthomeapp</text></g></g><g transform="translate(-166,-22) scale(1,1)"><path fill="none" stroke="#000000" d="M 960 208 L 960 64 L 782 64" stroke-miterlimit="10"/></g><g transform="translate(-166,-22) scale(1,1)"><path fill="#FFFFFF" stroke="none" d="M 782 64 C 782 60.1340064 785.1340064 57 789 57 C 792.8659936 57 796 60.1340064 796 64 C 796 67.8659936 792.8659936 71 789 71 C 785.1340064 71 782 67.8659936 782 64 Z"/></g><g transform="translate(-166,-22) scale(1,1)"><path fill="none" stroke="#000000" d="M 782 64 C 782 60.1340064 785.1340064 57 789 57 C 792.8659936 57 796 60.1340064 796 64 C 796 67.8659936 792.8659936 71 789 71 C 785.1340064 71 782 67.8659936 782 64 Z" stroke-miterlimit="10"/></g><g transform="translate(-166,-22) scale(1,1)"><path fill="none" stroke="#000000" d="M 796 64 L 782 64" stroke-miterlimit="10"/></g><g transform="translate(-166,-22) scale(1,1)"><path fill="none" stroke="#000000" d="M 789 57 L 789 71" stroke-miterlimit="10"/></g><g transform="translate(-166,-22) scale(1,1)"><rect fill="#C0C0C0" stroke="none" x="671" y="327" width="89.57080078125" height="57" opacity="0.2"/></g><g transform="translate(-166,-22) scale(1,1)"><rect fill="#ffffff" stroke="none" x="664" y="320" width="89.57080078125" height="57"/></g><g transform="translate(-166,-22) scale(1,1)"><path fill="none" stroke="#000000" d="M 664 320 L 753.57080078125 320 L 753.57080078125 377 L 664 377 L 664 320 Z Z" stroke-miterlimit="10"/></g><g transform="translate(-166,-22) scale(1,1)"><path fill="none" stroke="#000000" d="M 664 345 L 753.57080078125 345" stroke-miterlimit="10"/></g><g transform="translate(-166,-22) scale(1,1)"><path fill="none" stroke="#000000" d="M 664 355 L 753.57080078125 355" stroke-miterlimit="10"/></g><g transform="translate(-166,-22) scale(1,1)"><g><path fill="none" stroke="none"/><text fill="#000000" stroke="none" font-family="Arial" font-size="13px" font-style="normal" font-weight="bold" text-decoration="none" x="680.608154296875" y="339.5">Controller</text></g></g><g transform="translate(-166,-22) scale(1,1)"><g><path fill="none" stroke="none"/><text fill="#000000" stroke="none" font-family="Arial" font-size="13px" font-style="normal" font-weight="normal" text-decoration="none" x="669" y="372.5">+__init__()</text></g></g><g transform="translate(-166,-22) scale(1,1)"><path fill="none" stroke="#000000" d="M 456 208 L 456 64 L 632 64" stroke-miterlimit="10"/></g><g transform="translate(-166,-22) scale(1,1)"><path fill="#FFFFFF" stroke="none" d="M 618 64 C 618 60.1340064 621.1340064 57 625 57 C 628.8659936 57 632 60.1340064 632 64 C 632 67.8659936 628.8659936 71 625 71 C 621.1340064 71 618 67.8659936 618 64 Z"/></g><g transform="translate(-166,-22) scale(1,1)"><path fill="none" stroke="#000000" d="M 618 64 C 618 60.1340064 621.1340064 57 625 57 C 628.8659936 57 632 60.1340064 632 64 C 632 67.8659936 628.8659936 71 625 71 C 621.1340064 71 618 67.8659936 618 64 Z" stroke-miterlimit="10"/></g><g transform="translate(-166,-22) scale(1,1)"><path fill="none" stroke="#000000" d="M 618 64 L 632 64" stroke-miterlimit="10"/></g><g transform="translate(-166,-22) scale(1,1)"><path fill="none" stroke="#000000" d="M 625 71 L 625 57" stroke-miterlimit="10"/></g><g transform="translate(-166,-22) scale(1,1)"><rect fill="#C0C0C0" stroke="none" x="431" y="327" width="143" height="100" opacity="0.2"/></g><g transform="translate(-166,-22) scale(1,1)"><rect fill="#ffffff" stroke="none" x="424" y="320" width="143" height="100"/></g><g transform="translate(-166,-22) scale(1,1)"><path fill="none" stroke="#000000" d="M 424 320 L 567 320 L 567 420 L 424 420 L 424 320 Z Z" stroke-miterlimit="10"/></g><g transform="translate(-166,-22) scale(1,1)"><path fill="none" stroke="#000000" d="M 424 345 L 567 345" stroke-miterlimit="10"/></g><g transform="translate(-166,-22) scale(1,1)"><path fill="none" stroke="#000000" d="M 424 383 L 567 383" stroke-miterlimit="10"/></g><g transform="translate(-166,-22) scale(1,1)"><g><path fill="none" stroke="none"/><text fill="#000000" stroke="none" font-family="Arial" font-size="13px" font-style="normal" font-weight="bold" text-decoration="none" x="445.635986328125" y="339.5">RequestManager</text></g></g><g transform="translate(-166,-22) scale(1,1)"><g><path fill="none" stroke="none"/><text fill="#000000" stroke="none" font-family="Arial" font-size="13px" font-style="normal" font-weight="normal" text-decoration="none" x="429" y="362.5">+_queue: Queue</text></g></g><g transform="translate(-166,-22) scale(1,1)"><g><path fill="none" stroke="none"/><text fill="#000000" stroke="none" font-family="Arial" font-size="13px" font-style="normal" font-weight="normal" text-decoration="none" x="429" y="377.5">+_controller: Controller</text></g></g><g transform="translate(-166,-22) scale(1,1)"><g><path fill="none" stroke="none"/><text fill="#000000" stroke="none" font-family="Arial" font-size="13px" font-style="normal" font-weight="normal" text-decoration="none" x="429" y="400.5">+run()</text></g></g><g transform="translate(-166,-22) scale(1,1)"><g><path fill="none" stroke="none"/><text fill="#000000" stroke="none" font-family="Arial" font-size="13px" font-style="normal" font-weight="normal" text-decoration="none" x="429" y="415.5">-_manage_requests()</text></g></g><g transform="translate(-166,-22) scale(1,1)"><rect fill="#C0C0C0" stroke="none" x="255" y="87" width="72" height="57" opacity="0.2"/></g><g transform="translate(-166,-22) scale(1,1)"><rect fill="#ffffff" stroke="none" x="248" y="80" width="72" height="57"/></g><g transform="translate(-166,-22) scale(1,1)"><path fill="none" stroke="#000000" d="M 248 80 L 320 80 L 320 137 L 248 137 L 248 80 Z Z" stroke-miterlimit="10"/></g><g transform="translate(-166,-22) scale(1,1)"><path fill="none" stroke="#000000" d="M 248 105 L 320 105" stroke-miterlimit="10"/></g><g transform="translate(-166,-22) scale(1,1)"><path fill="none" stroke="#000000" d="M 248 115 L 320 115" stroke-miterlimit="10"/></g><g transform="translate(-166,-22) scale(1,1)"><g><path fill="none" stroke="none"/><text fill="#000000" stroke="none" font-family="Arial" font-size="13px" font-style="normal" font-weight="bold" text-decoration="none" x="263.405029296875" y="99.5">Thread</text></g></g><g transform="translate(-166,-22) scale(1,1)"><g><path fill="none" stroke="none"/><text fill="#000000" stroke="none" font-family="Arial" font-size="13px" font-style="normal" font-weight="normal" text-decoration="none" x="253" y="132.5">+run()</text></g></g><g transform="translate(-166,-22) scale(1,1)"><path fill="none" stroke="#000000" d="M 424 368 L 284 368 L 284 137" stroke-miterlimit="10"/></g><g transform="translate(-166,-22) scale(1,1)"><path fill="#FFFFFF" stroke="none" d="M 292.419035512032 157.3253497152483 L 284 137 L 275.580964487968 157.3253497152483"/></g><g transform="translate(-166,-22) scale(1,1)"><path fill="none" stroke="#000000" d="M 292.419035512032 157.3253497152483 L 284 137 L 275.580964487968 157.3253497152483 L 292.419035512032 157.3253497152483" stroke-miterlimit="10"/></g><g transform="translate(-166,-22) scale(1,1)"><rect fill="#C0C0C0" stroke="none" x="431" y="463" width="128" height="44" opacity="0.2"/></g><g transform="translate(-166,-22) scale(1,1)"><rect fill="#ffffff" stroke="none" x="424" y="456" width="128" height="44"/></g><g transform="translate(-166,-22) scale(1,1)"><path fill="none" stroke="#000000" d="M 424 456 L 552 456 L 552 500 L 424 500 L 424 456 Z Z" stroke-miterlimit="10"/></g><g transform="translate(-166,-22) scale(1,1)"><path fill="none" stroke="#000000" d="M 424 481 L 552 481" stroke-miterlimit="10"/></g><g transform="translate(-166,-22) scale(1,1)"><path fill="none" stroke="#000000" d="M 424 491 L 552 491" stroke-miterlimit="10"/></g><g transform="translate(-166,-22) scale(1,1)"><g><path fill="none" stroke="none"/><text fill="#000000" stroke="none" font-family="Arial" font-size="13px" font-style="normal" font-weight="bold" text-decoration="none" x="463.7900390625" y="475.5">Request</text></g></g><g transform="translate(-166,-22) scale(1,1)"><path fill="none" stroke="#000000" d="M 488 420 L 488 456" stroke-miterlimit="10"/></g><g transform="translate(-166,-22) scale(1,1)"><path fill="none" stroke="#000000" d="M 483.790482243984 445.83732514237585 L 488 456 L 492.209517756016 445.83732514237585" stroke-miterlimit="10"/></g><g transform="translate(-166,-22) scale(1,1)"><path fill="none" stroke="#000000" d="M 567 336 L 664 336" stroke-miterlimit="10"/></g><g transform="translate(-166,-22) scale(1,1)"><path fill="none" stroke="#000000" d="M 653.8373251423759 340.209517756016 L 664 336 L 653.8373251423758 331.790482243984" stroke-miterlimit="10"/></g><g transform="translate(-166,-22) scale(1,1)"><path fill="none" stroke="#000000" d="M 976 368 L 936 368 L 936 279" stroke-miterlimit="10"/></g><g transform="translate(-166,-22) scale(1,1)"><path fill="#FFFFFF" stroke="none" d="M 929 286 C 929 282.1340064 932.1340064 279 936 279 C 939.8659936 279 943 282.1340064 943 286 C 943 289.8659936 939.8659936 293 936 293 C 932.1340064 293 929 289.8659936 929 286 Z"/></g><g transform="translate(-166,-22) scale(1,1)"><path fill="none" stroke="#000000" d="M 929 286 C 929 282.1340064 932.1340064 279 936 279 C 939.8659936 279 943 282.1340064 943 286 C 943 289.8659936 939.8659936 293 936 293 C 932.1340064 293 929 289.8659936 929 286 Z" stroke-miterlimit="10"/></g><g transform="translate(-166,-22) scale(1,1)"><path fill="none" stroke="#000000" d="M 936 293 L 936 279" stroke-miterlimit="10"/></g><g transform="translate(-166,-22) scale(1,1)"><path fill="none" stroke="#000000" d="M 943 286 L 929 286" stroke-miterlimit="10"/></g><g transform="translate(-166,-22) scale(1,1)"><path fill="none" stroke="#000000" d="M 1224 240 L 1224 160 L 984 160 L 984 208" stroke-miterlimit="10"/></g><g transform="translate(-166,-22) scale(1,1)"><path fill="#FFFFFF" stroke="none" d="M 977 201 C 977 197.1340064 980.1340064 194 984 194 C 987.8659936 194 991 197.1340064 991 201 C 991 204.8659936 987.8659936 208 984 208 C 980.1340064 208 977 204.8659936 977 201 Z"/></g><g transform="translate(-166,-22) scale(1,1)"><path fill="none" stroke="#000000" d="M 977 201 C 977 197.1340064 980.1340064 194 984 194 C 987.8659936 194 991 197.1340064 991 201 C 991 204.8659936 987.8659936 208 984 208 C 980.1340064 208 977 204.8659936 977 201 Z" stroke-miterlimit="10"/></g><g transform="translate(-166,-22) scale(1,1)"><path fill="none" stroke="#000000" d="M 984 194 L 984 208" stroke-miterlimit="10"/></g><g transform="translate(-166,-22) scale(1,1)"><path fill="none" stroke="#000000" d="M 977 201 L 991 201" stroke-miterlimit="10"/></g><g transform="translate(-166,-22) scale(1,1)"><path fill="none" stroke="#000000" d="M 896 264 L 840 264 L 840 160 L 920 160 L 920 208" stroke-miterlimit="10"/></g><g transform="translate(-166,-22) scale(1,1)"><path fill="#FFFFFF" stroke="none" d="M 913 201 C 913 197.1340064 916.1340064 194 920 194 C 923.8659936 194 927 197.1340064 927 201 C 927 204.8659936 923.8659936 208 920 208 C 916.1340064 208 913 204.8659936 913 201 Z"/></g><g transform="translate(-166,-22) scale(1,1)"><path fill="none" stroke="#000000" d="M 913 201 C 913 197.1340064 916.1340064 194 920 194 C 923.8659936 194 927 197.1340064 927 201 C 927 204.8659936 923.8659936 208 920 208 C 916.1340064 208 913 204.8659936 913 201 Z" stroke-miterlimit="10"/></g><g transform="translate(-166,-22) scale(1,1)"><path fill="none" stroke="#000000" d="M 920 194 L 920 208" stroke-miterlimit="10"/></g><g transform="translate(-166,-22) scale(1,1)"><path fill="none" stroke="#000000" d="M 913 201 L 927 201" stroke-miterlimit="10"/></g><g transform="translate(-166,-22) scale(1,1)"><rect fill="#C0C0C0" stroke="none" x="903" y="247" width="32.205078125" height="15" opacity="0.2"/></g><g transform="translate(-166,-22) scale(1,1)"><rect fill="#C0C0C0" stroke="none" x="903" y="261" width="80.5126953125" height="25" opacity="0.2"/></g><g transform="translate(-166,-22) scale(1,1)"><rect fill="#ff8056" stroke="none" x="896" y="255" width="80.5126953125" height="24"/></g><g transform="translate(-166,-22) scale(1,1)"><path fill="none" stroke="#000000" d="M 896 255 L 976.5126953125 255 L 976.5126953125 279 L 896 279 L 896 255 Z Z" stroke-miterlimit="10"/></g><g transform="translate(-166,-22) scale(1,1)"><rect fill="#ff8056" stroke="none" x="896" y="240" width="32.205078125" height="15"/></g><g transform="translate(-166,-22) scale(1,1)"><path fill="none" stroke="#000000" d="M 896 240 L 928.205078125 240 L 928.205078125 255 L 896 255 L 896 240 Z Z" stroke-miterlimit="10"/></g><g transform="translate(-166,-22) scale(1,1)"><rect fill="#ff8056" stroke="none" x="896" y="254" width="80.5126953125" height="25"/></g><g transform="translate(-166,-22) scale(1,1)"><path fill="none" stroke="#000000" d="M 896 254 L 976.5126953125 254 L 976.5126953125 279 L 896 279 L 896 254 Z Z" stroke-miterlimit="10"/></g><g transform="translate(-166,-22) scale(1,1)"><path fill="none" stroke="#000000" d="M 919.205078125 243 L 913.205078125 250 L 925.205078125 250 L 919.205078125 243" stroke-miterlimit="10"/></g><g transform="translate(-166,-22) scale(1,1)"><g><path fill="none" stroke="none"/><text fill="#000000" stroke="none" font-family="Arial" font-size="13px" font-style="normal" font-weight="bold" text-decoration="none" x="920.726806640625" y="274.5">items</text></g></g><g transform="translate(-166,-22) scale(1,1)"><rect fill="#C0C0C0" stroke="none" x="967" y="903" width="120.64892578125" height="57" opacity="0.2"/></g><g transform="translate(-166,-22) scale(1,1)"><rect fill="#ffffff" stroke="none" x="960" y="896" width="120.64892578125" height="57"/></g><g transform="translate(-166,-22) scale(1,1)"><path fill="none" stroke="#000000" d="M 960 896 L 1080.64892578125 896 L 1080.64892578125 953 L 960 953 L 960 896 Z Z" stroke-miterlimit="10"/></g><g transform="translate(-166,-22) scale(1,1)"><path fill="none" stroke="#000000" d="M 960 921 L 1080.64892578125 921" stroke-miterlimit="10"/></g><g transform="translate(-166,-22) scale(1,1)"><path fill="none" stroke="#000000" d="M 960 931 L 1080.64892578125 931" stroke-miterlimit="10"/></g><g transform="translate(-166,-22) scale(1,1)"><g><path fill="none" stroke="none"/><text fill="#000000" stroke="none" font-family="Arial" font-size="13px" font-style="normal" font-weight="bold" text-decoration="none" x="988.890869140625" y="915.5">OnOffLight</text></g></g><g transform="translate(-166,-22) scale(1,1)"><g><path fill="none" stroke="none"/><text fill="#000000" stroke="none" font-family="Arial" font-size="13px" font-style="normal" font-weight="normal" text-decoration="none" x="965" y="948.5">+__init__(id, name)</text></g></g><g transform="translate(-166,-22) scale(1,1)"><path fill="none" stroke="#000000" d="M 1000 896 L 1000 833" stroke-miterlimit="10"/></g><g transform="translate(-166,-22) scale(1,1)"><path fill="#FFFFFF" stroke="none" d="M 1008.419035512032 853.3253497152483 L 1000 833 L 991.580964487968 853.3253497152483"/></g><g transform="translate(-166,-22) scale(1,1)"><path fill="none" stroke="#000000" d="M 1008.419035512032 853.3253497152483 L 1000 833 L 991.580964487968 853.3253497152483 L 1008.419035512032 853.3253497152483" stroke-miterlimit="10"/></g><g transform="translate(-166,-22) scale(1,1)"><rect fill="#C0C0C0" stroke="none" x="1103" y="903" width="120.64892578125" height="57" opacity="0.2"/></g><g transform="translate(-166,-22) scale(1,1)"><rect fill="#ffffff" stroke="none" x="1096" y="896" width="120.64892578125" height="57"/></g><g transform="translate(-166,-22) scale(1,1)"><path fill="none" stroke="#000000" d="M 1096 896 L 1216.64892578125 896 L 1216.64892578125 953 L 1096 953 L 1096 896 Z Z" stroke-miterlimit="10"/></g><g transform="translate(-166,-22) scale(1,1)"><path fill="none" stroke="#000000" d="M 1096 921 L 1216.64892578125 921" stroke-miterlimit="10"/></g><g transform="translate(-166,-22) scale(1,1)"><path fill="none" stroke="#000000" d="M 1096 931 L 1216.64892578125 931" stroke-miterlimit="10"/></g><g transform="translate(-166,-22) scale(1,1)"><g><path fill="none" stroke="none"/><text fill="#000000" stroke="none" font-family="Arial" font-size="13px" font-style="normal" font-weight="bold" text-decoration="none" x="1117.299072265625" y="915.5">GradientLight</text></g></g><g transform="translate(-166,-22) scale(1,1)"><g><path fill="none" stroke="none"/><text fill="#000000" stroke="none" font-family="Arial" font-size="13px" font-style="normal" font-weight="normal" text-decoration="none" x="1101" y="948.5">+__init__(id, name)</text></g></g><g transform="translate(-166,-22) scale(1,1)"><path fill="none" stroke="#000000" d="M 1128 896 L 1128 872 L 1016 872 L 1016 833" stroke-miterlimit="10"/></g><g transform="translate(-166,-22) scale(1,1)"><path fill="#FFFFFF" stroke="none" d="M 1024.419035512032 853.3253497152483 L 1016 833 L 1007.580964487968 853.3253497152483"/></g><g transform="translate(-166,-22) scale(1,1)"><path fill="none" stroke="#000000" d="M 1024.419035512032 853.3253497152483 L 1016 833 L 1007.580964487968 853.3253497152483 L 1024.419035512032 853.3253497152483" stroke-miterlimit="10"/></g><g transform="translate(-166,-22) scale(1,1)"><rect fill="#C0C0C0" stroke="none" x="951" y="1047" width="227.20000000000005" height="15" opacity="0.2"/></g><g transform="translate(-166,-22) scale(1,1)"><rect fill="#C0C0C0" stroke="none" x="951" y="1061" width="568" height="226" opacity="0.2"/></g><g transform="translate(-166,-22) scale(1,1)"><rect fill="#d1ffa3" stroke="none" x="944" y="1055" width="568" height="225"/></g><g transform="translate(-166,-22) scale(1,1)"><path fill="none" stroke="#000000" d="M 944 1055 L 1512 1055 L 1512 1280 L 944 1280 L 944 1055 Z Z" stroke-miterlimit="10"/></g><g transform="translate(-166,-22) scale(1,1)"><rect fill="#d1ffa3" stroke="none" x="944" y="1040" width="227.20000000000005" height="15"/></g><g transform="translate(-166,-22) scale(1,1)"><path fill="none" stroke="#000000" d="M 944 1040 L 1171.2 1040 L 1171.2 1055 L 944 1055 L 944 1040 Z Z" stroke-miterlimit="10"/></g><g transform="translate(-166,-22) scale(1,1)"><rect fill="#d1ffa3" stroke="none" x="944" y="1054" width="568" height="226"/></g><g transform="translate(-166,-22) scale(1,1)"><path fill="none" stroke="#000000" d="M 944 1054 L 1512 1054 L 1512 1280 L 944 1280 L 944 1054 Z Z" stroke-miterlimit="10"/></g><g transform="translate(-166,-22) scale(1,1)"><path fill="none" stroke="#000000" d="M 1163.2 1043 L 1163.2 1047" stroke-miterlimit="10"/></g><g transform="translate(-166,-22) scale(1,1)"><path fill="none" stroke="#000000" d="M 1160.2 1051 L 1160.2 1047 L 1166.2 1047" stroke-miterlimit="10"/></g><g transform="translate(-166,-22) scale(1,1)"><path fill="none" stroke="#000000" d="M 1166.2 1051 L 1166.2 1047 L 1160.2 1047" stroke-miterlimit="10"/></g><g transform="translate(-166,-22) scale(1,1)"><g><path fill="none" stroke="none"/><text fill="#000000" stroke="none" font-family="Arial" font-size="13px" font-style="normal" font-weight="bold" text-decoration="none" x="1189.707763671875" y="1074.5">itemstatus.py</text></g></g><g transform="translate(-166,-22) scale(1,1)"><rect fill="#C0C0C0" stroke="none" x="967" y="1223" width="101.8662109375" height="57" opacity="0.2"/></g><g transform="translate(-166,-22) scale(1,1)"><rect fill="#ffffff" stroke="none" x="960" y="1216" width="101.8662109375" height="57"/></g><g transform="translate(-166,-22) scale(1,1)"><path fill="none" stroke="#000000" d="M 960 1216 L 1061.8662109375 1216 L 1061.8662109375 1273 L 960 1273 L 960 1216 Z Z" stroke-miterlimit="10"/></g><g transform="translate(-166,-22) scale(1,1)"><path fill="none" stroke="#000000" d="M 960 1241 L 1061.8662109375 1241" stroke-miterlimit="10"/></g><g transform="translate(-166,-22) scale(1,1)"><path fill="none" stroke="#000000" d="M 960 1251 L 1061.8662109375 1251" stroke-miterlimit="10"/></g><g transform="translate(-166,-22) scale(1,1)"><g><path fill="none" stroke="none"/><text fill="#000000" stroke="none" font-family="Arial" font-size="13px" font-style="normal" font-weight="bold" text-decoration="none" x="975.167236328125" y="1235.5">OnOffStatus</text></g></g><g transform="translate(-166,-22) scale(1,1)"><g><path fill="none" stroke="none"/><text fill="#000000" stroke="none" font-family="Arial" font-size="13px" font-style="normal" font-weight="normal" text-decoration="none" x="965" y="1268.5">+__init__(value)</text></g></g><g transform="translate(-166,-22) scale(1,1)"><rect fill="#C0C0C0" stroke="none" x="967" y="1079" width="101.8662109375" height="100" opacity="0.2"/></g><g transform="translate(-166,-22) scale(1,1)"><rect fill="#ffffff" stroke="none" x="960" y="1072" width="101.8662109375" height="100"/></g><g transform="translate(-166,-22) scale(1,1)"><path fill="none" stroke="#000000" d="M 960 1072 L 1061.8662109375 1072 L 1061.8662109375 1172 L 960 1172 L 960 1072 Z Z" stroke-miterlimit="10"/></g><g transform="translate(-166,-22) scale(1,1)"><path fill="none" stroke="#000000" d="M 960 1097 L 1061.8662109375 1097" stroke-miterlimit="10"/></g><g transform="translate(-166,-22) scale(1,1)"><path fill="none" stroke="#000000" d="M 960 1120 L 1061.8662109375 1120" stroke-miterlimit="10"/></g><g transform="translate(-166,-22) scale(1,1)"><g><path fill="none" stroke="none"/><text fill="#000000" stroke="none" font-family="Arial" font-size="13px" font-style="italic" font-weight="bold" text-decoration="none" x="991.93310546875" y="1091.5">Status</text></g></g><g transform="translate(-166,-22) scale(1,1)"><g><path fill="none" stroke="none"/><text fill="#000000" stroke="none" font-family="Arial" font-size="13px" font-style="normal" font-weight="normal" text-decoration="none" x="965" y="1114.5">-_value</text></g></g><g transform="translate(-166,-22) scale(1,1)"><g><path fill="none" stroke="none"/><text fill="#000000" stroke="none" font-family="Arial" font-size="13px" font-style="normal" font-weight="normal" text-decoration="none" x="965" y="1137.5">+get_value()</text></g></g><g transform="translate(-166,-22) scale(1,1)"><g><path fill="none" stroke="none"/><text fill="#000000" stroke="none" font-family="Arial" font-size="13px" font-style="normal" font-weight="normal" text-decoration="none" x="965" y="1152.5">+__init__(value)</text></g></g><g transform="translate(-166,-22) scale(1,1)"><g><path fill="none" stroke="none"/><text fill="#000000" stroke="none" font-family="Arial" font-size="13px" font-style="normal" font-weight="normal" text-decoration="none" x="965" y="1167.5">+__str__()</text></g></g><g transform="translate(-166,-22) scale(1,1)"><path fill="none" stroke="#000000" d="M 997 1216 L 997 1172" stroke-miterlimit="10"/></g><g transform="translate(-166,-22) scale(1,1)"><path fill="#FFFFFF" stroke="none" d="M 1005.419035512032 1192.3253497152482 L 997 1172 L 988.580964487968 1192.3253497152482"/></g><g transform="translate(-166,-22) scale(1,1)"><path fill="none" stroke="#000000" d="M 1005.419035512032 1192.3253497152482 L 997 1172 L 988.580964487968 1192.3253497152482 L 1005.419035512032 1192.3253497152482" stroke-miterlimit="10"/></g><g transform="translate(-166,-22) scale(1,1)"><rect fill="#C0C0C0" stroke="none" x="1079" y="1223" width="102.18359375" height="57" opacity="0.2"/></g><g transform="translate(-166,-22) scale(1,1)"><rect fill="#ffffff" stroke="none" x="1072" y="1216" width="102.18359375" height="57"/></g><g transform="translate(-166,-22) scale(1,1)"><path fill="none" stroke="#000000" d="M 1072 1216 L 1174.18359375 1216 L 1174.18359375 1273 L 1072 1273 L 1072 1216 Z Z" stroke-miterlimit="10"/></g><g transform="translate(-166,-22) scale(1,1)"><path fill="none" stroke="#000000" d="M 1072 1241 L 1174.18359375 1241" stroke-miterlimit="10"/></g><g transform="translate(-166,-22) scale(1,1)"><path fill="none" stroke="#000000" d="M 1072 1251 L 1174.18359375 1251" stroke-miterlimit="10"/></g><g transform="translate(-166,-22) scale(1,1)"><g><path fill="none" stroke="none"/><text fill="#000000" stroke="none" font-family="Arial" font-size="13px" font-style="normal" font-weight="bold" text-decoration="none" x="1079.734130859375" y="1235.5">GradientStatus</text></g></g><g transform="translate(-166,-22) scale(1,1)"><g><path fill="none" stroke="none"/><text fill="#000000" stroke="none" font-family="Arial" font-size="13px" font-style="normal" font-weight="normal" text-decoration="none" x="1077" y="1268.5">+__init__(value)</text></g></g><g transform="translate(-166,-22) scale(1,1)"><path fill="none" stroke="#000000" d="M 1104 1216 L 1104 1200 L 1024 1200 L 1024 1172" stroke-miterlimit="10"/></g><g transform="translate(-166,-22) scale(1,1)"><path fill="#FFFFFF" stroke="none" d="M 1032.419035512032 1192.3253497152482 L 1024 1172 L 1015.580964487968 1192.3253497152482"/></g><g transform="translate(-166,-22) scale(1,1)"><path fill="none" stroke="#000000" d="M 1032.419035512032 1192.3253497152482 L 1024 1172 L 1015.580964487968 1192.3253497152482 L 1032.419035512032 1192.3253497152482" stroke-miterlimit="10"/></g><g transform="translate(-166,-22) scale(1,1)"><path fill="none" stroke="#000000" d="M 960 924 L 912 924 L 912 1232 L 960 1232" stroke-miterlimit="10"/></g><g transform="translate(-166,-22) scale(1,1)"><path fill="none" stroke="#000000" d="M 949.8373251423759 1236.2095177560159 L 960 1232 L 949.8373251423758 1227.7904822439841" stroke-miterlimit="10"/></g><g transform="translate(-166,-22) scale(1,1)"><path fill="none" stroke="#000000" d="M 1128 953 L 1128 1216" stroke-miterlimit="10"/></g><g transform="translate(-166,-22) scale(1,1)"><path fill="none" stroke="#000000" d="M 1123.7904822439841 1205.837325142376 L 1128 1216 L 1132.2095177560159 1205.837325142376" stroke-miterlimit="10"/></g><g transform="translate(-166,-22) scale(1,1)"><rect fill="#C0C0C0" stroke="none" x="183" y="87" width="64" height="56" opacity="0.2"/></g><g transform="translate(-166,-22) scale(1,1)"><rect fill="#ffffff" stroke="none" x="176" y="80" width="64" height="56"/></g><g transform="translate(-166,-22) scale(1,1)"><path fill="none" stroke="#000000" d="M 176 80 L 240 80 L 240 136 L 176 136 L 176 80 Z Z" stroke-miterlimit="10"/></g><g transform="translate(-166,-22) scale(1,1)"><path fill="none" stroke="#000000" d="M 176 105 L 240 105" stroke-miterlimit="10"/></g><g transform="translate(-166,-22) scale(1,1)"><path fill="none" stroke="#000000" d="M 176 115 L 240 115" stroke-miterlimit="10"/></g><g transform="translate(-166,-22) scale(1,1)"><g><path fill="none" stroke="none"/><text fill="#000000" stroke="none" font-family="Arial" font-size="13px" font-style="normal" font-weight="bold" text-decoration="none" x="191.02001953125" y="99.5">Enum</text></g></g><g transform="translate(-166,-22) scale(1,1)"><path fill="none" stroke="#000000" d="M 936 648 L 912 648 L 912 279" stroke-miterlimit="10"/></g><g transform="translate(-166,-22) scale(1,1)"><path fill="#FFFFFF" stroke="none" d="M 905 286 C 905 282.1340064 908.1340064 279 912 279 C 915.8659936 279 919 282.1340064 919 286 C 919 289.8659936 915.8659936 293 912 293 C 908.1340064 293 905 289.8659936 905 286 Z"/></g><g transform="translate(-166,-22) scale(1,1)"><path fill="none" stroke="#000000" d="M 905 286 C 905 282.1340064 908.1340064 279 912 279 C 915.8659936 279 919 282.1340064 919 286 C 919 289.8659936 915.8659936 293 912 293 C 908.1340064 293 905 289.8659936 905 286 Z" stroke-miterlimit="10"/></g><g transform="translate(-166,-22) scale(1,1)"><path fill="none" stroke="#000000" d="M 912 293 L 912 279" stroke-miterlimit="10"/></g><g transform="translate(-166,-22) scale(1,1)"><path fill="none" stroke="#000000" d="M 919 286 L 905 286" stroke-miterlimit="10"/></g><g transform="translate(-166,-22) scale(1,1)"><rect fill="#C0C0C0" stroke="none" x="967" y="783" width="120.64892578125" height="57" opacity="0.2"/></g><g transform="translate(-166,-22) scale(1,1)"><rect fill="#ffffff" stroke="none" x="960" y="776" width="120.64892578125" height="57"/></g><g transform="translate(-166,-22) scale(1,1)"><path fill="none" stroke="#000000" d="M 960 776 L 1080.64892578125 776 L 1080.64892578125 833 L 960 833 L 960 776 Z Z" stroke-miterlimit="10"/></g><g transform="translate(-166,-22) scale(1,1)"><path fill="none" stroke="#000000" d="M 960 801 L 1080.64892578125 801" stroke-miterlimit="10"/></g><g transform="translate(-166,-22) scale(1,1)"><path fill="none" stroke="#000000" d="M 960 811 L 1080.64892578125 811" stroke-miterlimit="10"/></g><g transform="translate(-166,-22) scale(1,1)"><g><path fill="none" stroke="none"/><text fill="#000000" stroke="none" font-family="Arial" font-size="13px" font-style="italic" font-weight="bold" text-decoration="none" x="1006.324462890625" y="795.5">Light</text></g></g><g transform="translate(-166,-22) scale(1,1)"><g><path fill="none" stroke="none"/><text fill="#000000" stroke="none" font-family="Arial" font-size="13px" font-style="normal" font-weight="normal" text-decoration="none" x="965" y="828.5">+__init__(id, name)</text></g></g><g transform="translate(-166,-22) scale(1,1)"><rect fill="#C0C0C0" stroke="none" x="1567" y="1047" width="121.59999999999991" height="15" opacity="0.2"/></g><g transform="translate(-166,-22) scale(1,1)"><rect fill="#C0C0C0" stroke="none" x="1567" y="1061" width="304" height="226" opacity="0.2"/></g><g transform="translate(-166,-22) scale(1,1)"><rect fill="#d1ffa3" stroke="none" x="1560" y="1055" width="304" height="225"/></g><g transform="translate(-166,-22) scale(1,1)"><path fill="none" stroke="#000000" d="M 1560 1055 L 1864 1055 L 1864 1280 L 1560 1280 L 1560 1055 Z Z" stroke-miterlimit="10"/></g><g transform="translate(-166,-22) scale(1,1)"><rect fill="#d1ffa3" stroke="none" x="1560" y="1040" width="121.59999999999991" height="15"/></g><g transform="translate(-166,-22) scale(1,1)"><path fill="none" stroke="#000000" d="M 1560 1040 L 1681.6 1040 L 1681.6 1055 L 1560 1055 L 1560 1040 Z Z" stroke-miterlimit="10"/></g><g transform="translate(-166,-22) scale(1,1)"><rect fill="#d1ffa3" stroke="none" x="1560" y="1054" width="304" height="226"/></g><g transform="translate(-166,-22) scale(1,1)"><path fill="none" stroke="#000000" d="M 1560 1054 L 1864 1054 L 1864 1280 L 1560 1280 L 1560 1054 Z Z" stroke-miterlimit="10"/></g><g transform="translate(-166,-22) scale(1,1)"><path fill="none" stroke="#000000" d="M 1673.6 1043 L 1673.6 1047" stroke-miterlimit="10"/></g><g transform="translate(-166,-22) scale(1,1)"><path fill="none" stroke="#000000" d="M 1670.6 1051 L 1670.6 1047 L 1676.6 1047" stroke-miterlimit="10"/></g><g transform="translate(-166,-22) scale(1,1)"><path fill="none" stroke="#000000" d="M 1676.6 1051 L 1676.6 1047 L 1670.6 1047" stroke-miterlimit="10"/></g><g transform="translate(-166,-22) scale(1,1)"><g><path fill="none" stroke="none"/><text fill="#000000" stroke="none" font-family="Arial" font-size="13px" font-style="normal" font-weight="bold" text-decoration="none" x="1679.490478515625" y="1074.5">itemutils.py</text></g></g><g transform="translate(-166,-22) scale(1,1)"><rect fill="#C0C0C0" stroke="none" x="1583" y="1095" width="92.6240234375" height="72" opacity="0.2"/></g><g transform="translate(-166,-22) scale(1,1)"><rect fill="#ffffff" stroke="none" x="1576" y="1088" width="92.6240234375" height="72"/></g><g transform="translate(-166,-22) scale(1,1)"><path fill="none" stroke="#000000" d="M 1576 1088 L 1668.6240234375 1088 L 1668.6240234375 1160 L 1576 1160 L 1576 1088 Z Z" stroke-miterlimit="10"/></g><g transform="translate(-166,-22) scale(1,1)"><path fill="none" stroke="#000000" d="M 1576 1113 L 1668.6240234375 1113" stroke-miterlimit="10"/></g><g transform="translate(-166,-22) scale(1,1)"><path fill="none" stroke="#000000" d="M 1576 1151 L 1668.6240234375 1151" stroke-miterlimit="10"/></g><g transform="translate(-166,-22) scale(1,1)"><g><path fill="none" stroke="none"/><text fill="#000000" stroke="none" font-family="Arial" font-size="13px" font-style="normal" font-weight="bold" text-decoration="none" x="1604.973388671875" y="1107.5">OnOff</text></g></g><g transform="translate(-166,-22) scale(1,1)"><g><path fill="none" stroke="none"/><text fill="#000000" stroke="none" font-family="Arial" font-size="13px" font-style="normal" font-weight="normal" text-decoration="none" x="1581" y="1130.5">+ON = "ON"</text></g></g><g transform="translate(-166,-22) scale(1,1)"><g><path fill="none" stroke="none"/><text fill="#000000" stroke="none" font-family="Arial" font-size="13px" font-style="normal" font-weight="normal" text-decoration="none" x="1581" y="1145.5">+OFF = "OFF"</text></g></g><g transform="translate(-166,-22) scale(1,1)"><path fill="none" stroke="#000000" d="M 1010 1273 L 1010 1312 L 1622 1312 L 1622 1160" stroke-miterlimit="10"/></g><g transform="translate(-166,-22) scale(1,1)"><path fill="none" stroke="#000000" d="M 1626.2095177560159 1170.162674857624 L 1622 1160 L 1617.7904822439841 1170.162674857624" stroke-miterlimit="10"/></g><g transform="translate(-166,-22) scale(1,1)"><path fill="none" stroke="#000000" d="M 1640 1160 L 1640 1536 L 208 1536 L 208 136" stroke-miterlimit="10"/></g><g transform="translate(-166,-22) scale(1,1)"><path fill="none" stroke="#000000" d="M 212.209517756016 146.16267485762415 L 208 136 L 203.790482243984 146.16267485762415" stroke-miterlimit="10"/></g></g></svg>